<svg width="24px" height="24px" viewBox="0 0 25 25" fill="none" xmlns="http://www.w3.org/2000/svg"
    aria-label="Monster">
    <path fill-rule="evenodd" clip-rule="evenodd"
        d="M24.7036 8.4053V6.0073L12.3523 0.0292969L0 6.0073V8.4053L2.49208 9.6173L0 10.8303V13.2293L2.49208 14.4423L0 15.6533V18.0513L12.3523 24.0293L24.7046 18.0513V15.6533L22.2125 14.4413L24.7046 13.2283V10.8293L22.2125 9.6163L24.7036 8.4043V8.4053ZM12.3523 21.5753L2.54766 16.8093L4.98518 15.6243L12.3245 19.1773L19.6638 15.6243L22.1003 16.8093L12.3523 21.5743V21.5753ZM7.50608 14.4113L12.3255 12.0713L17.145 14.4113L12.3523 16.7513L7.50608 14.4113ZM19.6916 13.1993L17.2541 12.0153L14.7332 10.8023L12.3523 9.6463L9.97036 10.8013L4.98621 13.1983L2.54869 12.0143L4.98518 10.8293L7.50608 9.6163L12.3235 7.2763L17.1707 9.6183L19.6916 10.8293L22.1281 12.0143L19.6916 13.1973V13.1993ZM12.3523 4.8233L4.98518 8.3753L2.54766 7.1913L12.3513 2.4553L22.1271 7.1913L19.6916 8.3753L12.3523 4.8233Z"
        fill="#60a5fa"></path>
</svg>